{
  "accessors": [
    {
      "bufferView": 2,
      "componentType": 5126,
      "count": 65532,
      "max": [
        3.5969674587249756,
        15.944613456726074,
        3.6491615772247314
      ],
      "min": [
        -3.597055435180664,
        0.33502182364463806,
        -3.6492090225219727
      ],
      "type": "VEC3"
    },
    {
      "bufferView": 2,
      "byteOffset": 786384,
      "componentType": 5126,
      "count": 65532,
      "max": [
        1.0,
        1.0,
        1.0
      ],
      "min": [
        -1.0,
        -1.0,
        -1.0
      ],
      "type": "VEC3"
    },
    {
      "bufferView": 1,
      "componentType": 5126,
      "count": 65532,
      "max": [
        1.0000001192092896,
        1.0000001192092896
      ],
      "min": [
        0.0,
        0.0
      ],
      "type": "VEC2"
    },
    {
      "bufferView": 0,
      "componentType": 5125,
      "count": 360549,
      "type": "SCALAR"
    },
    {
      "bufferView": 2,
      "byteOffset": 1572768,
      "componentType": 5126,
      "count": 65532,
      "max": [
        3.606022596359253,
        5.8296217918396,
        3.5698909759521484
      ],
      "min": [
        -3.618727922439575,
        0.009239740669727325,
        -3.547734022140503
      ],
      "type": "VEC3"
    },
    {
      "bufferView": 2,
      "byteOffset": 2359152,
      "componentType": 5126,
      "count": 65532,
      "max": [
        1.0,
        1.0,
        1.0
      ],
      "min": [
        -1.0,
        -1.0,
        -1.0
      ],
      "type": "VEC3"
    },
    {
      "bufferView": 1,
      "byteOffset": 524256,
      "componentType": 5126,
      "count": 65532,
      "max": [
        1.0000001192092896,
        1.0000001192092896
      ],
      "min": [
        0.0,
        0.0
      ],
      "type": "VEC2"
    },
    {
      "bufferView": 0,
      "byteOffset": 1442196,
      "componentType": 5125,
      "count": 372789,
      "type": "SCALAR"
    },
    {
      "bufferView": 2,
      "byteOffset": 3145536,
      "componentType": 5126,
      "count": 65532,
      "max": [
        3.133092164993286,
        5.443239688873291,
        3.6529386043548584
      ],
      "min": [
        -2.88352108001709,
        0.00022950771381147206,
        -3.6491243839263916
      ],
      "type": "VEC3"
    },
    {
      "bufferView": 2,
      "byteOffset": 3931920,
      "componentType": 5126,
      "count": 65532,
      "max": [
        1.0,
        1.0,
        1.0
      ],
      "min": [
        -1.0,
        -1.0,
        -1.0
      ],
      "type": "VEC3"
    },
    {
      "bufferView": 1,
      "byteOffset": 1048512,
      "componentType": 5126,
      "count": 65532,
      "max": [
        1.0000001192092896,
        1.0000001192092896
      ],
      "min": [
        0.0,
        0.0
      ],
      "type": "VEC2"
    },
    {
      "bufferView": 0,
      "byteOffset": 2933352,
      "componentType": 5125,
      "count": 337716,
      "type": "SCALAR"
    },
    {
      "bufferView": 2,
      "byteOffset": 4718304,
      "componentType": 5126,
      "count": 22315,
      "max": [
        -2.084007501602173,
        5.443239688873291,
        0.5339060425758362
      ],
      "min": [
        -3.5753824710845947,
        5.135351181030273,
        -2.9024405479431152
      ],
      "type": "VEC3"
    },
    {
      "bufferView": 2,
      "byteOffset": 4986084,
      "componentType": 5126,
      "count": 22315,
      "max": [
        0.9999995231628418,
        1.0,
        0.9999999403953552
      ],
      "min": [
        -0.99998939037323,
        -1.0,
        -0.9999993443489075
      ],
      "type": "VEC3"
    },
    {
      "bufferView": 1,
      "byteOffset": 1572768,
      "componentType": 5126,
      "count": 22315,
      "max": [
        1.0000001192092896,
        1.0000001192092896
      ],
      "min": [
        0.0,
        0.0
      ],
      "type": "VEC2"
    },
    {
      "bufferView": 0,
      "byteOffset": 4284216,
      "componentType": 5125,
      "count": 127506,
      "type": "SCALAR"
    },
    {
      "bufferView": 2,
      "byteOffset": 5253864,
      "componentType": 5126,
      "count": 6837,
      "max": [
        1.036897897720337,
        0.02227124199271202,
        1.0366313457489014
      ],
      "min": [
        -1.0369536876678467,
        -1.7129580974578857,
        -1.0369046926498413
      ],
      "type": "VEC3"
    },
    {
      "bufferView": 2,
      "byteOffset": 5335908,
      "componentType": 5126,
      "count": 6837,
      "max": [
        0.9999995827674866,
        0.7639302015304565,
        1.0
      ],
      "min": [
        -0.9999996423721313,
        -0.7580739855766296,
        -1.0
      ],
      "type": "VEC3"
    },
    {
      "bufferView": 1,
      "byteOffset": 1751288,
      "componentType": 5126,
      "count": 6837,
      "max": [
        2.211026906967163,
        0.9488387107849121
      ],
      "min": [
        -1.2110267877578735,
        0.06817532330751419
      ],
      "type": "VEC2"
    },
    {
      "bufferView": 0,
      "byteOffset": 4794240,
      "componentType": 5125,
      "count": 29184,
      "type": "SCALAR"
    }
  ],
  "asset": {
    "extras": {
      "author": "321Blender (https://sketchfab.com/321Blender)",
      "license": "CC-BY-4.0 (http://creativecommons.org/licenses/by/4.0/)",
      "source": "https://sketchfab.com/3d-models/rooftop-water-tank-436cc461b95a4db6a605f6141ad9fd9f",
      "title": "Rooftop Water Tank"
    },
    "generator": "Sketchfab-15.18.0",
    "version": "2.0"
  },
  "bufferViews": [
    {
      "buffer": 0,
      "byteLength": 4910976,
      "name": "floatBufferViews",
      "target": 34963
    },
    {
      "buffer": 0,
      "byteLength": 1805984,
      "byteOffset": 4910976,
      "byteStride": 8,
      "name": "floatBufferViews",
      "target": 34962
    },
    {
      "buffer": 0,
      "byteLength": 5417952,
      "byteOffset": 6716960,
      "byteStride": 12,
      "name": "floatBufferViews",
      "target": 34962
    }
  ],
  "buffers": [
    {
      "byteLength": 12134912,
      "uri": "scene.bin"
    }
  ],
  "images": [
    {
      "uri": "textures/Material.002_baseColor.jpeg"
    }
  ],
  "materials": [
    {
      "doubleSided": true,
      "name": "Material.001",
      "pbrMetallicRoughness": {
        "baseColorFactor": [
          0.20863687014525575,
          0.32777809805654207,
          0.467783796112159,
          1.0
        ],
        "roughnessFactor": 0.5
      }
    },
    {
      "doubleSided": true,
      "name": "Material.002",
      "pbrMetallicRoughness": {
        "baseColorTexture": {
          "index": 0
        },
        "metallicFactor": 0.3215658462935947
      }
    }
  ],
  "meshes": [
    {
      "name": "Object_0",
      "primitives": [
        {
          "attributes": {
            "NORMAL": 1,
            "POSITION": 0,
            "TEXCOORD_0": 2
          },
          "indices": 3,
          "material": 0,
          "mode": 4
        }
      ]
    },
    {
      "name": "Object_1",
      "primitives": [
        {
          "attributes": {
            "NORMAL": 5,
            "POSITION": 4,
            "TEXCOORD_0": 6
          },
          "indices": 7,
          "material": 0,
          "mode": 4
        }
      ]
    },
    {
      "name": "Object_2",
      "primitives": [
        {
          "attributes": {
            "NORMAL": 9,
            "POSITION": 8,
            "TEXCOORD_0": 10
          },
          "indices": 11,
          "material": 0,
          "mode": 4
        }
      ]
    },
    {
      "name": "Object_3",
      "primitives": [
        {
          "attributes": {
            "NORMAL": 13,
            "POSITION": 12,
            "TEXCOORD_0": 14
          },
          "indices": 15,
          "material": 0,
          "mode": 4
        }
      ]
    },
    {
      "name": "Object_4",
      "primitives": [
        {
          "attributes": {
            "NORMAL": 17,
            "POSITION": 16,
            "TEXCOORD_0": 18
          },
          "indices": 19,
          "material": 1,
          "mode": 4
        }
      ]
    }
  ],
  "nodes": [
    {
      "children": [
        1
      ],
      "matrix": [
        1.0,
        0.0,
        0.0,
        0.0,
        0.0,
        2.220446049250313e-16,
        -1.0,
        0.0,
        0.0,
        1.0,
        2.220446049250313e-16,
        0.0,
        0.0,
        0.0,
        0.0,
        1.0
      ],
      "name": "Sketchfab_model"
    },
    {
      "children": [
        2
      ],
      "name": "root"
    },
    {
      "children": [
        3
      ],
      "matrix": [
        1.0,
        0.0,
        0.0,
        0.0,
        0.0,
        2.220446049250313e-16,
        1.0,
        0.0,
        0.0,
        -1.0,
        2.220446049250313e-16,
        0.0,
        0.0,
        0.0,
        0.0,
        1.0
      ],
      "name": "GLTF_SceneRootNode"
    },
    {
      "children": [
        4,
        5,
        6,
        7,
        8
      ],
      "matrix": [
        1.1780176162719727,
        0.0,
        0.0,
        0.0,
        0.0,
        1.1780176162719727,
        0.0,
        0.0,
        0.0,
        0.0,
        1.1780176162719727,
        0.0,
        0.0,
        0.0,
        0.0,
        1.0
      ],
      "name": "Circle.001_1"
    },
    {
      "mesh": 0,
      "name": "Object_4"
    },
    {
      "mesh": 1,
      "name": "Object_5"
    },
    {
      "mesh": 2,
      "name": "Object_6"
    },
    {
      "mesh": 3,
      "name": "Object_7"
    },
    {
      "children": [
        9
      ],
      "matrix": [
        3.2165284156799316,
        0.0,
        0.0,
        0.0,
        0.0,
        4.019023418426514,
        0.0,
        0.0,
        0.0,
        0.0,
        3.2165284156799316,
        0.0,
        0.0,
        12.030292510986328,
        0.0,
        1.0
      ],
      "name": "Circle.004_0"
    },
    {
      "mesh": 4,
      "name": "Object_9"
    }
  ],
  "samplers": [
    {
      "magFilter": 9729,
      "minFilter": 9987,
      "wrapS": 10497,
      "wrapT": 10497
    }
  ],
  "scene": 0,
  "scenes": [
    {
      "name": "Sketchfab_Scene",
      "nodes": [
        0
      ]
    }
  ],
  "textures": [
    {
      "sampler": 0,
      "source": 0
    }
  ]
}
